<svg width="20" height="23" viewBox="0 0 20 23" fill="none" xmlns="http://www.w3.org/2000/svg">
<path d="M2.22222 22.2222H17.7778C19.0033 22.2222 20 21.2256 20 20V3.33333C20 2.10778 19.0033 1.11111 17.7778 1.11111H15.5556C15.5556 0.816426 15.4385 0.533811 15.2301 0.325437C15.0217 0.117063 14.7391 0 14.4444 0H5.55556C5.26087 0 4.97826 0.117063 4.76988 0.325437C4.56151 0.533811 4.44444 0.816426 4.44444 1.11111H2.22222C0.996667 1.11111 0 2.10778 0 3.33333V20C0 21.2256 0.996667 22.2222 2.22222 22.2222ZM2.22222 3.33333H4.44444V5.55556H15.5556V3.33333H17.7778V20H2.22222V3.33333Z" fill="url(#paint0_linear_601_19)"/>
<path d="M8.88889 12.8733L6.89667 10.8811L5.32555 12.4522L8.88889 16.0155L14.6744 10.23L13.1033 8.65885L8.88889 12.8733Z" fill="url(#paint1_linear_601_19)"/>
<defs>
<linearGradient id="paint0_linear_601_19" x1="10" y1="0" x2="10" y2="22" gradientUnits="userSpaceOnUse">
<stop stop-color="#FF8A00"/>
<stop offset="1" stop-color="#FAA33E"/>
</linearGradient>
<linearGradient id="paint1_linear_601_19" x1="10" y1="0" x2="10" y2="22" gradientUnits="userSpaceOnUse">
<stop stop-color="#FF8A00"/>
<stop offset="1" stop-color="#FAA33E"/>
</linearGradient>
</defs>
</svg>
