<svg width="17" height="20" viewBox="0 0 17 20" fill="none" xmlns="http://www.w3.org/2000/svg">
<path d="M10.9909 7.23108L10.6764 15.5386M6.32364 15.5386L6.00909 7.23108M15.0709 4.26809C15.3818 4.31608 15.6909 4.36685 16 4.42131M15.0709 4.26809L14.1 17.0828C14.0604 17.6046 13.8282 18.0919 13.45 18.4473C13.0718 18.8028 12.5754 19.0002 12.06 19H4.94C4.42463 19.0002 3.9282 18.8028 3.54998 18.4473C3.17176 18.0919 2.93963 17.6046 2.9 17.0828L1.92909 4.26809M15.0709 4.26809C14.0217 4.10703 12.9671 3.9848 11.9091 3.90163M1.92909 4.26809C1.61818 4.31516 1.30909 4.36593 1 4.42039M1.92909 4.26809C2.9783 4.10703 4.03294 3.9848 5.09091 3.90163M11.9091 3.90163V3.05612C11.9091 1.96692 11.0818 1.05863 10.0091 1.02448C9.00329 0.99184 7.99671 0.99184 6.99091 1.02448C5.91818 1.05863 5.09091 1.96784 5.09091 3.05612V3.90163M11.9091 3.90163C9.63975 3.72356 7.36025 3.72356 5.09091 3.90163" stroke="#D44627" stroke-width="1.5" stroke-linecap="round" stroke-linejoin="round"/>
</svg>
